<svg width="240" height="240" viewBox="0 0 240 240" fill="none" xmlns="http://www.w3.org/2000/svg">
  <path d="M120 220C175.228 220 220 175.228 220 120C220 64.7715 175.228 20 120 20C64.7715 20 20 64.7715 20 120C20 175.228 64.7715 220 120 220Z" fill="#FFF5F5"/>
  <!-- Dog body -->
  <path d="M160 140C160 168.719 142.091 180 120 180C97.9086 180 80 168.719 80 140C80 111.281 97.9086 100 120 100C142.091 100 160 111.281 160 140Z" fill="#4A5568"/>
  <!-- Ears -->
  <path d="M90 120C90 106.193 78.8071 95 65 95C51.1929 95 40 106.193 40 120" fill="#4A5568"/>
  <path d="M200 120C200 106.193 188.807 95 175 95C161.193 95 150 106.193 150 120" fill="#4A5568"/>
  <!-- Eyes -->
  <circle cx="100" cy="130" r="10" fill="white"/>
  <circle cx="140" cy="130" r="10" fill="white"/>
  <circle cx="100" cy="130" r="5" fill="#2D3748"/>
  <circle cx="140" cy="130" r="5" fill="#2D3748"/>
  <!-- Bug -->
  <circle cx="180" cy="80" r="5" fill="#E53E3E"/>
  <path d="M175 75L185 85M175 85L185 75" stroke="#E53E3E" stroke-width="2"/>
</svg> 