<?xml version="1.0" encoding="utf-8"?>
<svg width="32" height="32" viewBox="0 0 36 36" version="1.1" xmlns="http://www.w3.org/2000/svg">
    <title>TrustedWriter</title>
    <g transform="translate(2, 2)">
        <!-- Background Circle -->
        <circle cx="16" cy="16" r="16" fill="#00B5B4"/>
        <!-- Note Icon -->
        <g transform="scale(0.8) translate(4, 4)" fill="white">
            <path d="M28,30H6V8H19.22l2-2H6A2,2,0,0,0,4,8V30a2,2,0,0,0,2,2H28a2,2,0,0,0,2-2V15l-2,2Z"/>
            <path d="M33.53,5.84,30.16,2.47a1.61,1.61,0,0,0-2.28,0L14.17,16.26l-1.11,4.81A1.61,1.61,0,0,0,14.63,23,1.69,1.69,0,0,0,15,23l4.85-1.07L33.53,8.12A1.61,1.61,0,0,0,33.53,5.84ZM18.81,20.08l-3.66.81L16,17.26,26.32,6.87l2.82,2.82ZM30.27,8.56,27.45,5.74,29,4.16,31.84,7Z"/>
        </g>
    </g>
</svg>